<?xml version="1.0" encoding="UTF-8" standalone="no"?>
<!-- Created with Inkscape (http://www.inkscape.org/) -->

<svg
   width="14in"
   height="7.25in"
   viewBox="0 0 355.6 184.15"
   version="1.1"
   id="svg5"
   xml:space="preserve"
   inkscape:version="1.1.1 (3bf5ae0d25, 2021-09-20)"
   sodipodi:docname="MadWestTShirtLogo.svg"
   xmlns:inkscape="http://www.inkscape.org/namespaces/inkscape"
   xmlns:sodipodi="http://sodipodi.sourceforge.net/DTD/sodipodi-0.dtd"
   xmlns="http://www.w3.org/2000/svg"
   xmlns:svg="http://www.w3.org/2000/svg"><sodipodi:namedview
     id="namedview7"
     pagecolor="#ffffff"
     bordercolor="#666666"
     borderopacity="1.0"
     inkscape:showpageshadow="2"
     inkscape:pageopacity="0.0"
     inkscape:pagecheckerboard="0"
     inkscape:deskcolor="#d1d1d1"
     inkscape:document-units="mm"
     showgrid="false"
     showguides="true"
     inkscape:zoom="0.5"
     inkscape:cx="769"
     inkscape:cy="215"
     inkscape:window-width="2560"
     inkscape:window-height="1369"
     inkscape:window-x="2552"
     inkscape:window-y="-8"
     inkscape:window-maximized="1"
     inkscape:current-layer="layer1"
     inkscape:pageshadow="2"
     inkscape:guide-bbox="true"
     units="in"
     height="7in" /><defs
     id="defs2"><inkscape:path-effect
       effect="bspline"
       id="path-effect3134"
       is_visible="true"
       lpeversion="1"
       weight="33.333333"
       steps="2"
       helper_size="0"
       apply_no_weight="true"
       apply_with_weight="true"
       only_selected="false" /></defs><g
     inkscape:label="Layer 1"
     inkscape:groupmode="layer"
     id="layer1"><path
       style="fill:#fff66a;fill-opacity:0.995;stroke:#000000;stroke-width:0.318554;stroke-opacity:1"
       d="m 62.324442,177.9561 c 13.113875,0 24.817556,-35.24136 34.538138,-50.05216 18.85279,-28.72517 48.68451,-38.48825 73.78433,-45.41001 -0.50713,-2.98701 -0.77583,-4.73073 -1.07053,-6.70294 4.08078,-1.28164 11.29962,-2.98852 15.47007,-4.28646 -0.57733,-4.47598 -8.32299,-11.773744 -7.50775,-16.888327 2.77445,-2.562299 7.98046,-0.378212 11.28568,1.307771 4.68468,1.75193 10.20771,6.918822 15.35574,7.927149 1.7329,0.320227 2.57611,0.105863 5.29527,-0.604111 6.93373,-2.041554 16.45998,-3.502418 22.86635,-4.492664 9.81356,-1.516952 14.40028,-1.567988 27.98559,0.05482 -5.80899,6.67079 -11.13798,9.958442 -17.40372,13.692932 -0.90864,0.54156 -11.13351,5.20309 -17.20194,7.77973 -3.86963,1.64299 -11.34434,5.08085 -12.66773,6.15627 -6.38388,5.18771 -8.95591,19.41804 -13.81399,22.63731 -1.77226,0.91292 -2.65249,-0.12314 -3.61391,-4.25438 -0.57865,-2.48639 -0.59686,-2.6014 -1.25957,-7.96387 -0.57957,-4.68979 -1.3073,-7.384 -1.86287,-8.14378 -7.66657,2.22769 -9.2003,2.75134 -17.37233,5.99235 -1.53501,-2.76013 -1.60151,-4.58763 -3.0534,-7.85784 -31.25258,5.64711 -55.91526,21.28724 -67.7824,40.28363 -5.765314,9.22888 -24.571877,50.82448 -3.41026,50.79686 92.79824,-0.12106 171.94213,0.16513 250.80669,-0.10586 C 351.60134,67.39772 257.7352,4.0556841 180.90269,4.4280101 84.937333,4.2854221 4.5795876,79.85498 4.8139174,177.956 c 19.8966456,0.14329 40.6901536,1.6e-4 57.5105246,1.6e-4 z M 191.61259,144.46849 c 6.02486,-2.78525 9.09153,-5.40406 11.37083,-10.65828 2.12511,5.61478 4.76856,7.7955 11.68892,10.93755 -7.34775,2.7965 -9.08117,4.1601 -12.04332,11.43721 -3.37171,-6.87497 -4.42496,-8.07932 -11.01643,-11.71648 z m 112.07529,-10.68447 c -3.7016,-7.40586 -5.62059,-9.42681 -12.65033,-12.3383 6.97532,-2.39603 9.29223,-5.95621 12.17258,-12.05275 3.66147,6.32552 5.37519,9.55274 12.46709,11.71469 -5.21334,2.46815 -9.50438,5.56258 -11.98934,12.67636 z M 52.578121,90.14021 c 4.467313,-2.65064 4.467313,-2.65064 7.057971,-7.11847 2.683041,4.46783 2.683041,4.46783 7.392274,7.11847 -4.709233,2.70419 -4.709233,2.70419 -7.392277,7.02479 -2.590655,-4.3206 -2.590655,-4.3206 -7.057968,-7.02479 z M 133.77629,31.210214 c 9.89984,-4.733301 9.89984,-4.733301 14.77218,-14.295902 4.66088,9.562601 4.66088,9.562601 14.50491,14.295902 -9.68176,4.637653 -9.68176,4.637653 -14.50491,14.883017 -4.87234,-10.245364 -4.87234,-10.245364 -14.77218,-14.883017 z"
       id="path4698"
       sodipodi:nodetypes="cscccccccscssscsscccsscccsccccccccccccccccccccc" /></g></svg>
